<svg width="36" height="36" viewBox="0 0 36 36" fill="none" xmlns="http://www.w3.org/2000/svg">
<rect x="0.5" y="0.5" width="35" height="35" rx="11.5" stroke="#E9E9E9"/>
<path d="M28.4113 19.0929L26.5872 17.28C26.2185 16.9136 25.7333 16.7143 25.2094 16.7143H22.5119V14.1429C22.5119 13.4357 21.9297 12.8571 21.2182 12.8571H19.9244C19.5687 12.8571 19.2776 13.1464 19.2776 13.5C19.2776 13.8536 19.5687 14.1429 19.9244 14.1429H21.2182V24.4286H13.3458C13.3458 24.4286 13.3264 24.3836 13.3199 24.3643C13.307 24.3321 13.2876 24.3 13.2746 24.2614C13.2423 24.1907 13.2035 24.12 13.1582 24.0493C13.1388 24.0171 13.1194 23.985 13.1 23.9593C13.0482 23.8821 12.9835 23.8114 12.9188 23.7407C12.9059 23.7279 12.893 23.715 12.88 23.6957C12.8024 23.6186 12.7119 23.5479 12.6213 23.4836C12.5954 23.4643 12.5695 23.4514 12.5437 23.4321C12.4725 23.3871 12.4014 23.3486 12.3237 23.3164C12.2914 23.2971 12.2526 23.2843 12.2138 23.2714C12.1361 23.2393 12.0585 23.22 11.9809 23.2007C11.9485 23.1943 11.9097 23.1814 11.8774 23.175C11.761 23.1557 11.6445 23.1364 11.5216 23.1364C11.3987 23.1364 11.2823 23.1493 11.1658 23.175C11.127 23.1814 11.0947 23.1943 11.0623 23.2007C10.9847 23.22 10.9071 23.2457 10.8295 23.2714C10.7906 23.2843 10.7583 23.2971 10.7195 23.3164C10.6419 23.3486 10.5707 23.3936 10.4996 23.4321C10.4737 23.4514 10.4478 23.4643 10.4219 23.4836C10.3314 23.5479 10.2408 23.6186 10.1632 23.6957C10.1502 23.7086 10.1373 23.7214 10.1244 23.7407C10.0597 23.8114 10.0015 23.8821 9.94325 23.9593C9.92385 23.9914 9.90444 24.0171 9.88503 24.0493C9.83975 24.12 9.80094 24.1843 9.7686 24.2614C9.75566 24.2936 9.73625 24.3257 9.72332 24.3643C9.71685 24.3836 9.70391 24.4093 9.69744 24.4286H8.29374V14.1429H9.58747C9.94325 14.1429 10.2343 13.8536 10.2343 13.5C10.2343 13.1464 9.94325 12.8571 9.58747 12.8571H8.29374C7.58218 12.8571 7 13.4357 7 14.1429V24.4286C7 25.1357 7.58218 25.7143 8.29374 25.7143H9.70391C9.96913 26.46 10.6807 27 11.5281 27C12.3755 27 13.0806 26.46 13.3522 25.7143H22.6477C22.913 26.46 23.6245 27 24.4719 27C25.3193 27 26.0244 26.46 26.2961 25.7143H27.7063C28.4178 25.7143 29 25.1357 29 24.4286V20.4621C29 19.9479 28.7995 19.4593 28.4308 19.0929H28.4113ZM11.5151 25.7143C11.1594 25.7143 10.8683 25.425 10.8683 25.0714C10.8683 24.7179 11.1594 24.4286 11.5151 24.4286C11.8709 24.4286 12.162 24.7179 12.162 25.0714C12.162 25.425 11.8709 25.7143 11.5151 25.7143ZM24.4525 25.7143C24.0967 25.7143 23.8056 25.425 23.8056 25.0714C23.8056 24.7179 24.0967 24.4286 24.4525 24.4286C24.8083 24.4286 25.0994 24.7179 25.0994 25.0714C25.0994 25.425 24.8083 25.7143 24.4525 25.7143ZM26.2832 24.4286C26.2832 24.4286 26.2637 24.3836 26.2573 24.3643C26.2443 24.3321 26.2249 24.3 26.212 24.2614C26.1797 24.1907 26.1408 24.12 26.0956 24.0493C26.0762 24.0171 26.0567 23.985 26.0373 23.9593C25.9856 23.8821 25.9209 23.8114 25.8562 23.7407C25.8433 23.7279 25.8303 23.715 25.8174 23.6957C25.7398 23.6186 25.6492 23.5479 25.5587 23.4836C25.5328 23.4643 25.5069 23.4514 25.481 23.4321C25.4099 23.3871 25.3387 23.3486 25.2611 23.3164C25.2288 23.2971 25.1899 23.2843 25.1511 23.2714C25.0735 23.2393 24.9959 23.22 24.9183 23.2007C24.8859 23.1943 24.8471 23.1814 24.8148 23.175C24.6983 23.1557 24.5819 23.1364 24.459 23.1364C24.3361 23.1364 24.2196 23.1493 24.1032 23.175C24.0644 23.1814 24.032 23.1943 23.9997 23.2007C23.9221 23.22 23.8445 23.2457 23.7668 23.2714C23.728 23.2843 23.6957 23.2971 23.6569 23.3164C23.5792 23.3486 23.5081 23.3936 23.4369 23.4321C23.4111 23.4514 23.3852 23.4643 23.3593 23.4836C23.2687 23.5479 23.1782 23.6186 23.1006 23.6957C23.0876 23.7086 23.0747 23.7214 23.0617 23.7407C22.9971 23.8114 22.9388 23.8821 22.8806 23.9593C22.8612 23.9914 22.8418 24.0171 22.8224 24.0493C22.7771 24.12 22.7383 24.1843 22.706 24.2614C22.693 24.2936 22.6736 24.3257 22.6607 24.3643C22.6542 24.3836 22.6413 24.4093 22.6348 24.4286H22.5248V18H25.2223C25.3969 18 25.5587 18.0707 25.6816 18.1929L27.4281 19.9286H25.7527C25.3969 19.9286 25.1059 20.2179 25.1059 20.5714C25.1059 20.925 25.3969 21.2143 25.7527 21.2143H27.6933V24.4286H26.2832ZM13.7339 18.3857C14.0444 18.7907 14.2385 19.0414 14.2385 19.0414C14.3614 19.1957 14.5425 19.2857 14.743 19.2857C14.9371 19.2857 15.1247 19.1957 15.2476 19.0479C15.2476 19.0479 15.4481 18.8036 15.7457 18.3986C16.0238 18.0321 16.5737 17.2864 17.1364 16.4121C18.1391 14.8307 18.6242 13.6671 18.6242 12.8571C18.6242 10.7293 16.8842 9 14.743 9C12.6019 9 10.8618 10.7293 10.8618 12.8571C10.8618 13.6671 11.347 14.8307 12.3496 16.4121C12.7313 17.01 13.1841 17.6593 13.7274 18.3857H13.7339ZM14.7495 10.2857C16.1791 10.2857 17.337 11.4364 17.337 12.8571C17.337 13.1657 17.1688 13.9564 16.0497 15.7243C15.5387 16.5279 15.0276 17.2157 14.7495 17.5821C14.2385 16.8943 13.8115 16.29 13.4557 15.7243C12.3302 13.95 12.162 13.1657 12.162 12.8507C12.162 11.43 13.3199 10.2793 14.7495 10.2793V10.2857ZM13.7792 12.8571C13.7792 12.3236 14.2126 11.8929 14.7495 11.8929C15.2864 11.8929 15.7198 12.3236 15.7198 12.8571C15.7198 13.3907 15.2864 13.8214 14.7495 13.8214C14.2126 13.8214 13.7792 13.3907 13.7792 12.8571Z" fill="#991B1B"/>
</svg>
