<svg width="36" height="36" viewBox="0 0 36 36" fill="none" xmlns="http://www.w3.org/2000/svg">
<rect x="0.5" y="0.5" width="35" height="35" rx="11.5" stroke="#E9E9E9"/>
<path d="M18.8182 9.85714C18.8182 9.38376 18.4519 9 18 9C17.5481 9 17.1818 9.38376 17.1818 9.85714V10.7143H13.9091V9.85714C13.9091 9.38376 13.5428 9 13.0909 9C12.639 9 12.2727 9.38376 12.2727 9.85714V10.7143C10.4627 10.7143 9 12.2466 9 14.1429V23.5714C9 25.4677 10.4627 27 12.2727 27H17.1818C17.6337 27 18 26.6163 18 26.1429C18 25.6695 17.6337 25.2857 17.1818 25.2857H12.2727C11.3664 25.2857 10.6364 24.5209 10.6364 23.5714V14.1429C10.6364 13.1934 11.3664 12.4286 12.2727 12.4286V13.2857C12.2727 13.7591 12.639 14.1429 13.0909 14.1429C13.5428 14.1429 13.9091 13.7591 13.9091 13.2857V12.4286H17.1818V13.2857C17.1818 13.7591 17.5481 14.1429 18 14.1429C18.4519 14.1429 18.8182 13.7591 18.8182 13.2857V12.4286H22.0909V13.2857C22.0909 13.7591 22.4572 14.1429 22.9091 14.1429C23.361 14.1429 23.7273 13.7591 23.7273 13.2857V12.4286C24.6336 12.4286 25.3636 13.1934 25.3636 14.1429V17.1429C25.3636 17.6163 25.7299 18 26.1818 18C26.6337 18 27 17.6163 27 17.1429V14.1429C27 12.2466 25.5373 10.7143 23.7273 10.7143V9.85714C23.7273 9.38376 23.361 9 22.9091 9C22.4572 9 22.0909 9.38376 22.0909 9.85714V10.7143H18.8182V9.85714Z" fill="#991B1B"/>
<path d="M13.7046 16.1786C13.419 16.1786 13.1932 16.4151 13.1932 16.7143V18C13.1932 18.2991 13.419 18.5357 13.7046 18.5357H14.9318C15.2174 18.5357 15.4432 18.2991 15.4432 18V16.7143C15.4432 16.4151 15.2174 16.1786 14.9318 16.1786H13.7046Z" fill="#991B1B"/>
<path d="M17.3864 16.1786C17.1008 16.1786 16.875 16.4151 16.875 16.7143V18C16.875 18.2991 17.1008 18.5357 17.3864 18.5357H18.6136C18.8992 18.5357 19.125 18.2991 19.125 18V16.7143C19.125 16.4151 18.8992 16.1786 18.6136 16.1786H17.3864Z" fill="#991B1B"/>
<path d="M13.7046 20.0357C13.419 20.0357 13.1932 20.2723 13.1932 20.5714V21.8571C13.1932 22.1563 13.419 22.3928 13.7046 22.3928H14.9318C15.2174 22.3928 15.4432 22.1563 15.4432 21.8571V20.5714C15.4432 20.2723 15.2174 20.0357 14.9318 20.0357H13.7046Z" fill="#991B1B"/>
<path d="M23.3018 21.4286C23.3018 21.0735 23.0271 20.7857 22.6882 20.7857C22.3493 20.7857 22.0745 21.0735 22.0745 21.4286V22.7143C22.0745 23.0693 22.3493 23.3571 22.6882 23.3571H23.8745C24.2134 23.3571 24.4882 23.0693 24.4882 22.7143C24.4882 22.3593 24.2134 22.0714 23.8745 22.0714H23.3018V21.4286Z" fill="#991B1B"/>
<path fill-rule="evenodd" clip-rule="evenodd" d="M18.5973 22.7143C18.5973 20.3474 20.4289 18.4286 22.6882 18.4286C24.9475 18.4286 26.7791 20.3474 26.7791 22.7143C26.7791 25.0812 24.9475 27 22.6882 27C20.4289 27 18.5973 25.0812 18.5973 22.7143ZM22.6882 20.1428C21.3325 20.1428 20.2336 21.2941 20.2336 22.7143C20.2336 24.1345 21.3325 25.2857 22.6882 25.2857C24.0438 25.2857 25.1427 24.1345 25.1427 22.7143C25.1427 21.2941 24.0438 20.1428 22.6882 20.1428Z" fill="#991B1B"/>
</svg>
