<svg width="36" height="36" viewBox="0 0 36 36" fill="none" xmlns="http://www.w3.org/2000/svg">
<rect x="0.5" y="0.5" width="35" height="35" rx="11.5" stroke="#E9E9E9"/>
<path d="M17.5 15.1505V17.4357C17.5 17.7269 17.7239 17.963 18 17.963C18.2761 17.963 18.5 17.7269 18.5 17.4357V15.1505C18.5 14.8593 18.2761 14.6232 18 14.6232C17.7239 14.6232 17.5 14.8593 17.5 15.1505Z" fill="#991B1B"/>
<path d="M18 18.6662C17.7239 18.6662 17.5 18.9023 17.5 19.1935C17.5 19.4847 17.7239 19.7209 18 19.7209C18.2761 19.7209 18.5 19.4847 18.5 19.1935C18.5 18.9023 18.2761 18.6662 18 18.6662Z" fill="#991B1B"/>
<path d="M16.6866 12.5266L13.0471 19.484C12.7881 19.9791 12.7962 20.5655 13.0688 21.0525C13.3414 21.5395 13.8243 21.8303 14.3605 21.8303H21.6395C22.1758 21.8303 22.6586 21.5395 22.9312 21.0525C23.2038 20.5655 23.2119 19.9791 22.9529 19.484L19.3134 12.5266C19.0455 12.0145 18.5545 11.7088 18 11.7088C17.4455 11.7088 16.9545 12.0145 16.6866 12.5266ZM18.4378 13.0361L22.0773 19.9934C22.2018 20.2313 22.1137 20.4383 22.0701 20.5163C22.0265 20.5942 21.8972 20.7755 21.6395 20.7755H14.3605C14.1029 20.7755 13.9736 20.5942 13.9299 20.5163C13.8863 20.4383 13.7982 20.2313 13.9227 19.9934L17.5622 13.0361C17.6909 12.79 17.9112 12.7635 18 12.7635C18.0888 12.7635 18.3091 12.79 18.4378 13.0361Z" fill="#991B1B"/>
<path d="M25.1478 11.3087L18.1479 9.02357C18.0516 8.99214 17.9485 8.99214 17.8522 9.02357L10.8522 11.3087C10.6428 11.3771 10.5 11.5813 10.5 11.8125V18.7031C10.5 20.7926 11.202 22.5851 12.5865 24.0307C13.8329 25.3321 15.6096 26.3247 17.8671 26.981C17.9541 27.0063 18.0459 27.0063 18.1329 26.981C20.3904 26.3247 22.167 25.3321 23.4134 24.0307C24.798 22.5851 25.5 20.7926 25.5 18.7031V11.8125C25.5 11.5813 25.3572 11.3771 25.1478 11.3087ZM24.5 18.7031C24.5 23.0465 20.9976 25.0265 18 25.9251C15.0024 25.0265 11.5 23.0465 11.5 18.7031V12.2013L18 10.0794L24.5 12.2013V18.7031Z" fill="#991B1B"/>
</svg>
