<svg width="36" height="36" viewBox="0 0 36 36" fill="none" xmlns="http://www.w3.org/2000/svg">
<rect x="0.5" y="0.5" width="35" height="35" rx="11.5" stroke="#E9E9E9"/>
<path d="M18.1404 21.2396C17.8618 21.2644 17.4872 21.1807 17.3425 20.9979C17.103 20.6955 16.6677 20.6479 16.3704 20.8914C16.073 21.135 16.0261 21.5776 16.2656 21.8801C16.5347 22.2198 16.9062 22.4272 17.2852 22.5398C17.3724 22.8266 17.6351 23.0349 17.9458 23.0349C18.2393 23.0349 18.4902 22.8488 18.5904 22.5863C19.298 22.4132 19.7891 21.9003 19.8747 21.2144C19.9786 20.3825 19.4551 19.5873 18.6017 19.2805C18.0639 19.0872 17.7908 18.9734 17.7143 18.9367C17.6011 18.8824 17.6042 18.8397 17.6064 18.8085C17.6124 18.7263 17.6721 18.6548 17.7089 18.6435C18.1124 18.5199 18.3237 18.6505 18.3551 18.6901C18.5746 19.0073 19.0054 19.084 19.3177 18.861C19.6303 18.638 19.7058 18.1994 19.4865 17.8816C19.3042 17.6175 19.0017 17.3887 18.6134 17.2707C18.5341 16.9713 18.2653 16.7509 17.9458 16.7509C17.6124 16.7509 17.3342 16.9909 17.269 17.3103C16.6907 17.5068 16.2744 18.0615 16.2275 18.7045C16.1809 19.3446 16.5246 19.9209 17.1246 20.2087C17.2957 20.2907 17.6662 20.4357 18.1409 20.6063C18.433 20.7113 18.5175 20.9216 18.503 21.0373C18.4836 21.1925 18.243 21.2305 18.1404 21.2396Z" fill="#991B1B"/>
<path d="M23.4624 22.6762C23.4529 22.6759 23.4434 22.6756 23.4338 22.6756H22.5695C22.1876 22.6756 21.8781 22.9904 21.8781 23.3788C21.8781 23.7671 22.1876 24.0819 22.5695 24.0819H23.4172C23.8107 24.1048 24.1172 24.4342 24.1172 24.8372C24.1172 25.2543 23.7835 25.5938 23.3733 25.5938H12.6266C12.2164 25.5938 11.8827 25.2544 11.8827 24.8372C11.8827 24.4341 12.1894 24.1047 12.583 24.0819H14.0102C14.392 24.0819 14.7016 23.7671 14.7016 23.3788C14.7016 22.9904 14.392 22.6756 14.0102 22.6756H13.2576V18.367C13.2576 15.7075 15.385 13.5439 18 13.5439C20.615 13.5439 22.7424 15.7075 22.7424 18.367V19.8631C22.7424 20.2515 23.0519 20.5663 23.4338 20.5663C23.8156 20.5663 24.1251 20.2515 24.1251 19.8631V18.367C24.1251 15.6676 22.4281 13.3637 20.0621 12.5009L20.1939 11.5009C20.1948 11.4943 20.1956 11.4877 20.1962 11.4811C20.2617 10.849 20.0594 10.2156 19.6413 9.74324C19.2231 9.27091 18.6249 9 18 9C17.375 9 16.7768 9.27091 16.3587 9.74327C15.9406 10.2157 15.7383 10.8491 15.8037 11.4812C15.8044 11.4878 15.8052 11.4944 15.806 11.5009L15.9378 12.5009C13.5718 13.3637 11.8748 15.6676 11.8748 18.367V22.8123C11.0672 23.1205 10.5 23.9109 10.5 24.8372C10.5 26.0297 11.454 27 12.6267 27H23.3733C24.546 27 25.5 26.0298 25.5 24.8372C25.5 23.6736 24.605 22.7244 23.4624 22.6762ZM17.178 11.3254C17.1558 11.0887 17.2296 10.8612 17.3863 10.6842C17.545 10.5049 17.7629 10.4062 18 10.4062C18.2371 10.4062 18.455 10.5049 18.6136 10.6841C18.7704 10.8612 18.8442 11.0886 18.8219 11.3254L18.7094 12.1792C18.4766 12.1518 18.2399 12.1376 18 12.1376C17.7601 12.1376 17.5234 12.1518 17.2906 12.1792L17.178 11.3254Z" fill="#991B1B"/>
</svg>
