<svg width="36" height="36" viewBox="0 0 36 36" fill="none" xmlns="http://www.w3.org/2000/svg">
<rect x="0.5" y="0.5" width="35" height="35" rx="11.5" stroke="#E9E9E9"/>
<path d="M18.5501 24.8334C16.6759 24.8953 14.7995 24.8301 12.9348 24.6383C12.0802 24.5409 11.2121 23.7035 11.1112 22.8787C10.811 20.1619 10.811 15.0303 11.1112 12.3131C11.2121 11.488 12.0802 10.6506 12.9351 10.5532C14.6603 10.3758 16.3956 10.307 18.13 10.3472H18.1351C18.1388 10.3472 18.463 10.3528 18.8174 10.3683C20.6289 11.5578 22.1893 13.0689 23.4157 14.8211C23.4248 14.9709 23.4361 15.2078 23.4361 15.4683V15.4873C23.4692 16.6228 23.4751 17.8483 23.4528 19.0134C23.9473 19.1514 24.4113 19.3757 24.8218 19.6754C24.86 18.3103 24.8582 16.8214 24.8218 15.4588C24.8218 14.9621 24.7854 14.5585 24.7854 14.5416C24.7754 14.43 24.7367 14.3226 24.6728 14.2291C23.2945 12.2158 21.5112 10.4902 19.4287 9.15474C19.3259 9.08864 19.2067 9.05028 19.0834 9.04365C18.6521 9.02009 18.2036 9.01236 18.1614 9.01131C16.3661 8.97009 14.57 9.0416 12.7843 9.2254H12.7781C12.0561 9.30696 11.3403 9.65852 10.7633 10.2164C10.1863 10.7744 9.81983 11.4652 9.73605 12.1619V12.1679C9.42132 15.0085 9.42132 20.1834 9.73605 23.0239V23.0299C9.81947 23.7263 10.1841 24.4171 10.7622 24.975C11.3403 25.533 12.0561 25.8849 12.7781 25.9657H12.7843C14.2456 26.1161 15.7141 26.1913 17.1837 26.1911C18.0113 26.1911 18.837 26.1676 19.6607 26.1208C19.2025 25.7701 18.8243 25.3318 18.5501 24.8334Z" fill="#991B1B"/>
<path d="M18.9482 20.9603H13.2218C13.0865 20.9603 12.9568 21.0121 12.8612 21.1044C12.7655 21.1967 12.7118 21.3219 12.7118 21.4525C12.7118 21.583 12.7655 21.7082 12.8612 21.8005C12.9568 21.8928 13.0865 21.9446 13.2218 21.9446H18.9482C19.0835 21.9446 19.2132 21.8928 19.3088 21.8005C19.4045 21.7082 19.4582 21.583 19.4582 21.4525C19.4582 21.3219 19.4045 21.1967 19.3088 21.1044C19.2132 21.0121 19.0835 20.9603 18.9482 20.9603Z" fill="#991B1B"/>
<path d="M13.2218 19.4736H21.1266C21.2618 19.4736 21.3915 19.4217 21.4872 19.3294C21.5828 19.2371 21.6366 19.1119 21.6366 18.9814C21.6366 18.8509 21.5828 18.7257 21.4872 18.6334C21.3915 18.5411 21.2618 18.4892 21.1266 18.4892H13.2218C13.0865 18.4892 12.9568 18.5411 12.8612 18.6334C12.7655 18.7257 12.7118 18.8509 12.7118 18.9814C12.7118 19.1119 12.7655 19.2371 12.8612 19.3294C12.9568 19.4217 13.0865 19.4736 13.2218 19.4736Z" fill="#991B1B"/>
<path d="M13.2218 17.0028H18.5766C18.7119 17.0028 18.8416 16.951 18.9373 16.8587C19.0329 16.7664 19.0866 16.6412 19.0866 16.5107C19.0866 16.3801 19.0329 16.2549 18.9373 16.1626C18.8416 16.0703 18.7119 16.0185 18.5766 16.0185H13.2218C13.0865 16.0185 12.9568 16.0703 12.8612 16.1626C12.7655 16.2549 12.7118 16.3801 12.7118 16.5107C12.7118 16.6412 12.7655 16.7664 12.8612 16.8587C12.9568 16.951 13.0865 17.0028 13.2218 17.0028Z" fill="#991B1B"/>
<path d="M22.2799 20.1897C22.8409 20.1896 23.3893 20.3501 23.8557 20.6508C24.3222 20.9516 24.6858 21.3791 24.9005 21.8792C25.1152 22.3794 25.1714 22.9298 25.062 23.4608C24.9526 23.9918 24.6824 24.4796 24.2858 24.8624C23.8891 25.2452 23.3837 25.5059 22.8335 25.6115C22.2833 25.7171 21.713 25.6629 21.1947 25.4557C20.6764 25.2484 20.2335 24.8976 19.9218 24.4474C19.6102 23.9972 19.4439 23.4679 19.444 22.9265C19.4449 22.2009 19.7439 21.5053 20.2756 20.9922C20.8072 20.4791 21.528 20.1905 22.2799 20.1897ZM22.2799 18.8538C21.4451 18.8537 20.6291 19.0925 19.935 19.5401C19.2408 19.9876 18.6998 20.6237 18.3803 21.368C18.0609 22.1123 17.9773 22.9313 18.1401 23.7214C18.3029 24.5116 18.7049 25.2374 19.2952 25.807C19.8854 26.3767 20.6375 26.7646 21.4562 26.9218C22.2749 27.0789 23.1236 26.9982 23.8948 26.6899C24.666 26.3816 25.3251 25.8594 25.7889 25.1896C26.2526 24.5197 26.5001 23.7322 26.5 22.9265C26.5 21.8464 26.0554 20.8105 25.264 20.0467C24.4725 19.2829 23.3991 18.8538 22.2799 18.8538Z" fill="#991B1B"/>
<path d="M23.5953 15.5309C22.6989 15.5306 21.8033 15.4845 20.912 15.3927H20.8996C20.2275 15.3175 19.5744 15.0025 19.0589 14.505C18.5435 14.0076 18.2175 13.3776 18.1395 12.73V12.717C18.0341 11.7108 17.9862 10.6997 17.996 9.6884C17.9968 9.59914 18.0162 9.51094 18.0529 9.42901C18.0896 9.34709 18.143 9.2731 18.2099 9.21142C18.2767 9.14975 18.3557 9.10163 18.4422 9.06991C18.5286 9.0382 18.6208 9.02353 18.7133 9.02677C18.8469 9.0317 18.9715 9.03732 19.0834 9.04365C19.2067 9.05028 19.3259 9.08864 19.4287 9.15474C21.5106 10.4903 23.2933 12.2159 24.671 14.2291C24.7351 14.3225 24.7738 14.43 24.7835 14.5416C24.7835 14.5462 24.7934 14.6545 24.8025 14.8229C24.8074 14.9124 24.7935 15.002 24.7618 15.0863C24.73 15.1706 24.681 15.2479 24.6176 15.3135C24.5543 15.3791 24.4778 15.4318 24.3929 15.4683C24.308 15.5048 24.2164 15.5244 24.1235 15.526C23.9931 15.5288 23.7264 15.5309 23.5953 15.5309ZM21.0592 14.0646C21.6854 14.1289 22.3185 14.17 22.9487 14.1865C21.9424 12.8833 20.7437 11.7294 19.3908 10.7617C19.4112 11.3917 19.4538 12.0273 19.5143 12.5736C19.5565 12.9252 19.7423 13.2739 20.0378 13.558C20.3332 13.842 20.6956 14.0227 21.0577 14.0631L21.0592 14.0646Z" fill="#991B1B"/>
<path d="M22.6562 23.8357C22.4111 23.7991 22.1617 23.7991 21.9167 23.8357C21.8428 23.8508 21.7751 23.8863 21.7217 23.9379C21.6683 23.9894 21.6315 24.0548 21.6158 24.126C21.5779 24.3625 21.5779 24.6032 21.6158 24.8397C21.6315 24.911 21.6683 24.9763 21.7217 25.0279C21.7751 25.0794 21.8428 25.1149 21.9167 25.1301C22.1617 25.1666 22.4111 25.1666 22.6562 25.1301C22.73 25.1149 22.7977 25.0794 22.8511 25.0279C22.9045 24.9763 22.9413 24.911 22.9571 24.8397C22.9949 24.6032 22.9949 24.3625 22.9571 24.126C22.9413 24.0548 22.9045 23.9894 22.8511 23.9379C22.7977 23.8863 22.73 23.8508 22.6562 23.8357Z" fill="#991B1B"/>
<path d="M22.2795 23.4032C22.4631 23.4032 22.6391 23.3329 22.7689 23.2076C22.8987 23.0823 22.9716 22.9124 22.9716 22.7353V21.4999C22.9716 21.3228 22.8987 21.1529 22.7689 21.0276C22.6391 20.9023 22.4631 20.832 22.2795 20.832C22.0959 20.832 21.9199 20.9023 21.7901 21.0276C21.6603 21.1529 21.5874 21.3228 21.5874 21.4999V22.7349C21.5873 22.8227 21.6052 22.9096 21.64 22.9907C21.6747 23.0717 21.7257 23.1454 21.79 23.2075C21.8542 23.2695 21.9306 23.3188 22.0146 23.3524C22.0986 23.386 22.1886 23.4032 22.2795 23.4032Z" fill="#991B1B"/>
</svg>
